<svg width="233" height="50" viewBox="0 0 233 50" fill="none" xmlns="http://www.w3.org/2000/svg">
<path d="M49.21 20.3571L15.8823 1.34373C14.3432 0.465043 12.7924 0 11.5034 0C9.01136 0 7.4698 1.66671 7.4698 4.45656V45.5499C7.4698 48.3365 9.00942 50 11.4956 50C12.7866 50 14.3126 49.5345 15.8551 48.6534L49.1983 29.6405C51.3426 28.4158 52.5301 26.7677 52.5301 24.9978C52.5306 23.2291 51.3567 21.5814 49.21 20.3571Z" fill="#361CD4" fill-opacity="0.9"/>
<path d="M49.21 20.3571L15.8823 1.34373C14.3432 0.465043 12.7924 0 11.5034 0C9.01136 0 7.4698 1.66671 7.4698 4.45656V45.5499C7.4698 48.3365 9.00942 50 11.4956 50C12.7866 50 14.3126 49.5345 15.8551 48.6534L49.1983 29.6405C51.3426 28.4158 52.5301 26.7677 52.5301 24.9978C52.5306 23.2291 51.3567 21.5814 49.21 20.3571Z" fill="url(#paint0_linear)"/>
<path d="M93.5312 25.5859C93.3203 27.3906 92.6523 28.7852 91.5273 29.7695C90.4102 30.7461 88.9219 31.2344 87.0625 31.2344C85.0469 31.2344 83.4297 30.5117 82.2109 29.0664C81 27.6211 80.3945 25.6875 80.3945 23.2656V21.625C80.3945 20.0391 80.6758 18.6445 81.2383 17.4414C81.8086 16.2383 82.6133 15.3164 83.6523 14.6758C84.6914 14.0273 85.8945 13.7031 87.2617 13.7031C89.0742 13.7031 90.5273 14.2109 91.6211 15.2266C92.7148 16.2344 93.3516 17.6328 93.5312 19.4219H91.2695C91.0742 18.0625 90.6484 17.0781 89.9922 16.4688C89.3438 15.8594 88.4336 15.5547 87.2617 15.5547C85.8242 15.5547 84.6953 16.0859 83.875 17.1484C83.0625 18.2109 82.6562 19.7227 82.6562 21.6836V23.3359C82.6562 25.1875 83.043 26.6602 83.8164 27.7539C84.5898 28.8477 85.6719 29.3945 87.0625 29.3945C88.3125 29.3945 89.2695 29.1133 89.9336 28.5508C90.6055 27.9805 91.0508 26.9922 91.2695 25.5859H93.5312ZM104.102 31C103.977 30.75 103.875 30.3047 103.797 29.6641C102.789 30.7109 101.586 31.2344 100.188 31.2344C98.9375 31.2344 97.9102 30.8828 97.1055 30.1797C96.3086 29.4688 95.9102 28.5703 95.9102 27.4844C95.9102 26.1641 96.4102 25.1406 97.4102 24.4141C98.418 23.6797 99.832 23.3125 101.652 23.3125H103.762V22.3164C103.762 21.5586 103.535 20.957 103.082 20.5117C102.629 20.0586 101.961 19.832 101.078 19.832C100.305 19.832 99.6562 20.0273 99.1328 20.418C98.6094 20.8086 98.3477 21.2812 98.3477 21.8359H96.168C96.168 21.2031 96.3906 20.5938 96.8359 20.0078C97.2891 19.4141 97.8984 18.9453 98.6641 18.6016C99.4375 18.2578 100.285 18.0859 101.207 18.0859C102.668 18.0859 103.812 18.4531 104.641 19.1875C105.469 19.9141 105.898 20.918 105.93 22.1992V28.0352C105.93 29.1992 106.078 30.125 106.375 30.8125V31H104.102ZM100.504 29.3477C101.184 29.3477 101.828 29.1719 102.438 28.8203C103.047 28.4688 103.488 28.0117 103.762 27.4492V24.8477H102.062C99.4062 24.8477 98.0781 25.625 98.0781 27.1797C98.0781 27.8594 98.3047 28.3906 98.7578 28.7734C99.2109 29.1562 99.793 29.3477 100.504 29.3477ZM108.801 24.5547C108.801 22.6094 109.262 21.0469 110.184 19.8672C111.105 18.6797 112.312 18.0859 113.805 18.0859C115.289 18.0859 116.465 18.5938 117.332 19.6094V13H119.5V31H117.508L117.402 29.6406C116.535 30.7031 115.328 31.2344 113.781 31.2344C112.312 31.2344 111.113 30.6328 110.184 29.4297C109.262 28.2266 108.801 26.6562 108.801 24.7188V24.5547ZM110.969 24.8008C110.969 26.2383 111.266 27.3633 111.859 28.1758C112.453 28.9883 113.273 29.3945 114.32 29.3945C115.695 29.3945 116.699 28.7773 117.332 27.543V21.7188C116.684 20.5234 115.688 19.9258 114.344 19.9258C113.281 19.9258 112.453 20.3359 111.859 21.1562C111.266 21.9766 110.969 23.1914 110.969 24.8008ZM130.703 31C130.578 30.75 130.477 30.3047 130.398 29.6641C129.391 30.7109 128.188 31.2344 126.789 31.2344C125.539 31.2344 124.512 30.8828 123.707 30.1797C122.91 29.4688 122.512 28.5703 122.512 27.4844C122.512 26.1641 123.012 25.1406 124.012 24.4141C125.02 23.6797 126.434 23.3125 128.254 23.3125H130.363V22.3164C130.363 21.5586 130.137 20.957 129.684 20.5117C129.23 20.0586 128.562 19.832 127.68 19.832C126.906 19.832 126.258 20.0273 125.734 20.418C125.211 20.8086 124.949 21.2812 124.949 21.8359H122.77C122.77 21.2031 122.992 20.5938 123.438 20.0078C123.891 19.4141 124.5 18.9453 125.266 18.6016C126.039 18.2578 126.887 18.0859 127.809 18.0859C129.27 18.0859 130.414 18.4531 131.242 19.1875C132.07 19.9141 132.5 20.918 132.531 22.1992V28.0352C132.531 29.1992 132.68 30.125 132.977 30.8125V31H130.703ZM127.105 29.3477C127.785 29.3477 128.43 29.1719 129.039 28.8203C129.648 28.4688 130.09 28.0117 130.363 27.4492V24.8477H128.664C126.008 24.8477 124.68 25.625 124.68 27.1797C124.68 27.8594 124.906 28.3906 125.359 28.7734C125.812 29.1562 126.395 29.3477 127.105 29.3477ZM143.312 27.6367C143.312 27.0508 143.09 26.5977 142.645 26.2773C142.207 25.9492 141.438 25.668 140.336 25.4336C139.242 25.1992 138.371 24.918 137.723 24.5898C137.082 24.2617 136.605 23.8711 136.293 23.418C135.988 22.9648 135.836 22.4258 135.836 21.8008C135.836 20.7617 136.273 19.8828 137.148 19.1641C138.031 18.4453 139.156 18.0859 140.523 18.0859C141.961 18.0859 143.125 18.457 144.016 19.1992C144.914 19.9414 145.363 20.8906 145.363 22.0469H143.184C143.184 21.4531 142.93 20.9414 142.422 20.5117C141.922 20.082 141.289 19.8672 140.523 19.8672C139.734 19.8672 139.117 20.0391 138.672 20.3828C138.227 20.7266 138.004 21.1758 138.004 21.7305C138.004 22.2539 138.211 22.6484 138.625 22.9141C139.039 23.1797 139.785 23.4336 140.863 23.6758C141.949 23.918 142.828 24.207 143.5 24.543C144.172 24.8789 144.668 25.2852 144.988 25.7617C145.316 26.2305 145.48 26.8047 145.48 27.4844C145.48 28.6172 145.027 29.5273 144.121 30.2148C143.215 30.8945 142.039 31.2344 140.594 31.2344C139.578 31.2344 138.68 31.0547 137.898 30.6953C137.117 30.3359 136.504 29.8359 136.059 29.1953C135.621 28.5469 135.402 27.8477 135.402 27.0977H137.57C137.609 27.8242 137.898 28.4023 138.438 28.832C138.984 29.2539 139.703 29.4648 140.594 29.4648C141.414 29.4648 142.07 29.3008 142.562 28.9727C143.062 28.6367 143.312 28.1914 143.312 27.6367ZM151.246 15.25V18.3203H153.613V19.9961H151.246V27.8594C151.246 28.3672 151.352 28.75 151.562 29.0078C151.773 29.2578 152.133 29.3828 152.641 29.3828C152.891 29.3828 153.234 29.3359 153.672 29.2422V31C153.102 31.1562 152.547 31.2344 152.008 31.2344C151.039 31.2344 150.309 30.9414 149.816 30.3555C149.324 29.7695 149.078 28.9375 149.078 27.8594V19.9961H146.77V18.3203H149.078V15.25H151.246ZM162.285 20.2656C161.957 20.2109 161.602 20.1836 161.219 20.1836C159.797 20.1836 158.832 20.7891 158.324 22V31H156.156V18.3203H158.266L158.301 19.7852C159.012 18.6523 160.02 18.0859 161.324 18.0859C161.746 18.0859 162.066 18.1406 162.285 18.25V20.2656ZM171.648 31C171.523 30.75 171.422 30.3047 171.344 29.6641C170.336 30.7109 169.133 31.2344 167.734 31.2344C166.484 31.2344 165.457 30.8828 164.652 30.1797C163.855 29.4688 163.457 28.5703 163.457 27.4844C163.457 26.1641 163.957 25.1406 164.957 24.4141C165.965 23.6797 167.379 23.3125 169.199 23.3125H171.309V22.3164C171.309 21.5586 171.082 20.957 170.629 20.5117C170.176 20.0586 169.508 19.832 168.625 19.832C167.852 19.832 167.203 20.0273 166.68 20.418C166.156 20.8086 165.895 21.2812 165.895 21.8359H163.715C163.715 21.2031 163.938 20.5938 164.383 20.0078C164.836 19.4141 165.445 18.9453 166.211 18.6016C166.984 18.2578 167.832 18.0859 168.754 18.0859C170.215 18.0859 171.359 18.4531 172.188 19.1875C173.016 19.9141 173.445 20.918 173.477 22.1992V28.0352C173.477 29.1992 173.625 30.125 173.922 30.8125V31H171.648ZM168.051 29.3477C168.73 29.3477 169.375 29.1719 169.984 28.8203C170.594 28.4688 171.035 28.0117 171.309 27.4492V24.8477H169.609C166.953 24.8477 165.625 25.625 165.625 27.1797C165.625 27.8594 165.852 28.3906 166.305 28.7734C166.758 29.1562 167.34 29.3477 168.051 29.3477ZM183.004 20.2656C182.676 20.2109 182.32 20.1836 181.938 20.1836C180.516 20.1836 179.551 20.7891 179.043 22V31H176.875V18.3203H178.984L179.02 19.7852C179.73 18.6523 180.738 18.0859 182.043 18.0859C182.465 18.0859 182.785 18.1406 183.004 18.25V20.2656Z" fill="#742BD1"/>
<defs>
<linearGradient id="paint0_linear" x1="30" y1="0" x2="30" y2="50" gradientUnits="userSpaceOnUse">
<stop stop-color="#B300FF"/>
<stop offset="1" stop-color="#EBBBFF" stop-opacity="0"/>
</linearGradient>
</defs>
</svg>
