<svg width="233" height="60" viewBox="0 0 233 60" fill="none" xmlns="http://www.w3.org/2000/svg">
<path d="M30.1169 2.22239C22.5979 2.20208 15.3672 5.11418 9.96105 10.34V2.22226C9.96105 0.99492 8.96614 0 7.73879 0C6.51145 0 5.51666 0.99492 5.51666 2.22226V15.5556C5.5164 16.5125 6.12877 17.3621 7.03671 17.6644L20.37 22.1088C21.5359 22.4967 22.7955 21.8658 23.1833 20.7C23.5712 19.5341 22.9403 18.2744 21.7744 17.8867L11.9301 14.6112C21.0239 4.70819 36.424 4.0522 46.327 13.1461C56.23 22.2399 56.886 37.64 47.7921 47.543C38.6982 57.446 23.2981 58.102 13.3952 49.0081C7.32382 43.4328 4.48607 35.164 5.85455 27.0355C6.06979 25.8272 5.26484 24.6733 4.05664 24.4579C2.84844 24.2425 1.69441 25.0476 1.47904 26.2558C1.4767 26.269 1.47449 26.2822 1.4724 26.2954C1.20639 27.8868 1.07253 29.4975 1.0724 31.1109C1.0905 47.0582 14.0138 59.9815 29.961 59.9999C45.9158 60.043 58.8846 47.1439 58.9277 31.1891C58.9707 15.2343 46.0718 2.26549 30.1169 2.22239Z" fill="#361CD4" fill-opacity="0.9"/>
<path d="M30.1169 2.22239C22.5979 2.20208 15.3672 5.11418 9.96105 10.34V2.22226C9.96105 0.99492 8.96614 0 7.73879 0C6.51145 0 5.51666 0.99492 5.51666 2.22226V15.5556C5.5164 16.5125 6.12877 17.3621 7.03671 17.6644L20.37 22.1088C21.5359 22.4967 22.7955 21.8658 23.1833 20.7C23.5712 19.5341 22.9403 18.2744 21.7744 17.8867L11.9301 14.6112C21.0239 4.70819 36.424 4.0522 46.327 13.1461C56.23 22.2399 56.886 37.64 47.7921 47.543C38.6982 57.446 23.2981 58.102 13.3952 49.0081C7.32382 43.4328 4.48607 35.164 5.85455 27.0355C6.06979 25.8272 5.26484 24.6733 4.05664 24.4579C2.84844 24.2425 1.69441 25.0476 1.47904 26.2558C1.4767 26.269 1.47449 26.2822 1.4724 26.2954C1.20639 27.8868 1.07253 29.4975 1.0724 31.1109C1.0905 47.0582 14.0138 59.9815 29.961 59.9999C45.9158 60.043 58.8846 47.1439 58.9277 31.1891C58.9707 15.2343 46.0718 2.26549 30.1169 2.22239Z" fill="url(#paint0_linear)"/>
<path d="M39.605 28.2142L22.9412 16.8062C22.1716 16.279 21.3962 16 20.7517 16C19.5057 16 18.7349 17 18.7349 18.6739V43.33C18.7349 45.0019 19.5047 46 20.7478 46C21.3933 46 22.1563 45.7207 22.9276 45.1921L39.5992 33.7843C40.6713 33.0495 41.2651 32.0606 41.2651 30.9987C41.2653 29.9374 40.6784 28.9488 39.605 28.2142Z" fill="#361CD4" fill-opacity="0.9"/>
<path d="M39.605 28.2142L22.9412 16.8062C22.1716 16.279 21.3962 16 20.7517 16C19.5057 16 18.7349 17 18.7349 18.6739V43.33C18.7349 45.0019 19.5047 46 20.7478 46C21.3933 46 22.1563 45.7207 22.9276 45.1921L39.5992 33.7843C40.6713 33.0495 41.2651 32.0606 41.2651 30.9987C41.2653 29.9374 40.6784 28.9488 39.605 28.2142Z" fill="url(#paint1_linear)"/>
<path d="M83.2422 34.1602H91.3281V36H80.9805V18.9375H83.2422V34.1602ZM92.9805 29.543C92.9805 28.3008 93.2227 27.1836 93.707 26.1914C94.1992 25.1992 94.8789 24.4336 95.7461 23.8945C96.6211 23.3555 97.6172 23.0859 98.7344 23.0859C100.461 23.0859 101.855 23.6836 102.918 24.8789C103.988 26.0742 104.523 27.6641 104.523 29.6484V29.8008C104.523 31.0352 104.285 32.1445 103.809 33.1289C103.34 34.1055 102.664 34.8672 101.781 35.4141C100.906 35.9609 99.8984 36.2344 98.7578 36.2344C97.0391 36.2344 95.6445 35.6367 94.5742 34.4414C93.5117 33.2461 92.9805 31.6641 92.9805 29.6953V29.543ZM95.1602 29.8008C95.1602 31.207 95.4844 32.3359 96.1328 33.1875C96.7891 34.0391 97.6641 34.4648 98.7578 34.4648C99.8594 34.4648 100.734 34.0352 101.383 33.1758C102.031 32.3086 102.355 31.0977 102.355 29.543C102.355 28.1523 102.023 27.0273 101.359 26.168C100.703 25.3008 99.8281 24.8672 98.7344 24.8672C97.6641 24.8672 96.8008 25.293 96.1445 26.1445C95.4883 26.9961 95.1602 28.2148 95.1602 29.8008ZM106.727 29.5547C106.727 27.5781 107.184 26.0078 108.098 24.8438C109.012 23.6719 110.223 23.0859 111.73 23.0859C113.277 23.0859 114.484 23.6328 115.352 24.7266L115.457 23.3203H117.438V35.6953C117.438 37.3359 116.949 38.6289 115.973 39.5742C115.004 40.5195 113.699 40.9922 112.059 40.9922C111.145 40.9922 110.25 40.7969 109.375 40.4062C108.5 40.0156 107.832 39.4805 107.371 38.8008L108.496 37.5C109.426 38.6484 110.562 39.2227 111.906 39.2227C112.961 39.2227 113.781 38.9258 114.367 38.332C114.961 37.7383 115.258 36.9023 115.258 35.8242V34.7344C114.391 35.7344 113.207 36.2344 111.707 36.2344C110.223 36.2344 109.02 35.6367 108.098 34.4414C107.184 33.2461 106.727 31.6172 106.727 29.5547ZM108.906 29.8008C108.906 31.2305 109.199 32.3555 109.785 33.1758C110.371 33.9883 111.191 34.3945 112.246 34.3945C113.613 34.3945 114.617 33.7734 115.258 32.5312V26.7422C114.594 25.5312 113.598 24.9258 112.27 24.9258C111.215 24.9258 110.391 25.3359 109.797 26.1562C109.203 26.9766 108.906 28.1914 108.906 29.8008ZM123.074 36H120.906V23.3203H123.074V36ZM120.73 19.957C120.73 19.6055 120.836 19.3086 121.047 19.0664C121.266 18.8242 121.586 18.7031 122.008 18.7031C122.43 18.7031 122.75 18.8242 122.969 19.0664C123.188 19.3086 123.297 19.6055 123.297 19.957C123.297 20.3086 123.188 20.6016 122.969 20.8359C122.75 21.0703 122.43 21.1875 122.008 21.1875C121.586 21.1875 121.266 21.0703 121.047 20.8359C120.836 20.6016 120.73 20.3086 120.73 19.957ZM128.605 23.3203L128.676 24.9141C129.645 23.6953 130.91 23.0859 132.473 23.0859C135.152 23.0859 136.504 24.5977 136.527 27.6211V36H134.359V27.6094C134.352 26.6953 134.141 26.0195 133.727 25.582C133.32 25.1445 132.684 24.9258 131.816 24.9258C131.113 24.9258 130.496 25.1133 129.965 25.4883C129.434 25.8633 129.02 26.3555 128.723 26.9648V36H126.555V23.3203H128.605Z" fill="#742BD1"/>
<defs>
<linearGradient id="paint0_linear" x1="30.0001" y1="0" x2="30.0001" y2="60" gradientUnits="userSpaceOnUse">
<stop stop-color="#B205FB"/>
<stop offset="0.9999" stop-color="#D885FF" stop-opacity="0.078125"/>
<stop offset="1" stop-color="white" stop-opacity="0"/>
</linearGradient>
<linearGradient id="paint1_linear" x1="30" y1="16" x2="30" y2="46" gradientUnits="userSpaceOnUse">
<stop stop-color="#B205FB"/>
<stop offset="0.9999" stop-color="#D885FF" stop-opacity="0.078125"/>
<stop offset="1" stop-color="white" stop-opacity="0"/>
</linearGradient>
</defs>
</svg>
