<svg width="60" height="60" viewBox="0 0 60 60" fill="none" xmlns="http://www.w3.org/2000/svg">
<g clip-path="url(#clip0)">
<path d="M58.9998 58.1099L59.0002 58.9998H1.0002V58.1099C0.998368 56.8295 1.15263 55.5533 1.45979 54.31L2.38997 50.5398C3.46846 46.6076 7.08296 43.9119 11.1598 43.9998H48.8402C52.917 43.9119 56.5315 46.6076 57.61 50.5398L58.5402 54.31C58.8473 55.5533 59.0016 56.8295 58.9998 58.1099Z" fill="#E9BB86"/>
<path d="M13.9998 41.0001C3.99994 41.0001 3.00018 33.9999 3.00018 33.9999C11.0001 31.0002 7.99988 16.0002 9.99985 9.99985C11.9998 3.99994 18.3673 5.26474 18.9999 3.99994C20.0002 1.99997 26.0001 1.00021 33.0002 1.00021C39.9998 1.00021 50.0002 5.00015 52.0001 16.0002C54.0001 26.9998 52.9999 32 56.9998 33.9999C56.9998 33.9999 56.3452 41.0001 45.1726 41.0001" fill="#E9BB86"/>
<path d="M16.9629 41.0001C8.8147 41.0001 7.99988 33.9999 7.99988 33.9999C14.5184 31.0002 12.074 16.0002 13.7036 9.99985C15.3333 3.99994 20.5215 5.26474 21.037 3.99994C21.8518 1.99997 26.7407 1.00021 32.4445 1.00021C38.1482 1.00021 46.2964 5.00015 47.926 16.0002C49.5557 26.9998 48.7408 32 52.0001 33.9999C52.0001 33.9999 51.4664 41.0001 42.3628 41.0001" fill="#F8CEA8"/>
<path d="M39.9999 41.0001H45.1699C46.258 40.9044 47.2701 41.5654 47.6198 42.6L47.91 43.9998L50.9999 58.9998H9.00012L12.1001 43.9998L12.3899 42.6C12.735 41.5663 13.7444 40.9044 14.8302 41.0001H39.9999Z" fill="#F8CEA8"/>
<path d="M22.0001 35.0002H37.9999V41.9998H22.0001V35.0002Z" fill="#E9BB86"/>
<path d="M45 24.0001V28.9998C45.0014 30.8569 44.2644 32.6381 42.9511 33.9514C41.6382 35.2643 39.857 36.0013 37.9999 35.9999H22.0001C20.143 36.0013 18.3618 35.2643 17.049 33.9514C15.7356 32.6381 14.9986 30.8569 15 28.9998V26.9998C17 24.9998 18.0002 20.9999 18.9999 18.0002C20.0002 15 22.0898 11.2999 26.0001 9.99986C28.9998 9.0001 39.9998 16.0002 41.0001 18.0002C41.976 20.2167 43.3296 22.2464 45 24.0001Z" fill="#E9BB86"/>
<path d="M41.9998 24.0001V28.9998C41.9998 32.8702 39.4958 35.9999 36.4 35.9999H23.6C20.5042 35.9999 18.0002 32.8702 18.0002 28.9998V26.9998C19.6001 24.9998 20.3998 20.9999 21.2 18.0002C22.0001 15 23.6719 11.2999 26.8002 9.99986C29.1998 9.0001 37.9999 16.0002 38.8 18.0002C39.548 20.1544 40.6279 22.1787 41.9998 24.0001Z" fill="#F8CEA8"/>
<path d="M39.9998 41.0001C39.9998 41.0001 39.0001 45 35.0001 45C31.0002 45 30 47 30 47C30 47 28.9998 45 24.9998 45C20.9999 45 20.0001 41.0001 20.0001 41.0001H39.9998Z" fill="#F8CEA8"/>
<path d="M31.0002 50.9999V58.9998H28.9998V50.9999C28.9998 50.4478 29.4479 50.0002 30 50.0002C30.552 50.0002 31.0002 50.4478 31.0002 50.9999Z" fill="#E9BB86"/>
<path d="M28.9998 47H31.0002C31.5522 47 31.9999 47.4477 31.9999 48.0002V50.0002C31.9999 50.5522 31.5522 50.9999 31.0002 50.9999H28.9998C28.4477 50.9999 28 50.5522 28 50.0002V48.0002C28 47.4477 28.4477 47 28.9998 47Z" fill="#F8CEA8"/>
<path d="M26.9998 21.6811C26.9998 20.4973 26.1044 19.5378 24.9998 19.5378C23.8953 19.5378 22.9999 20.4973 22.9999 21.6811C22.9999 22.8653 23.8953 23.8248 24.9998 23.8248C26.1044 23.8248 26.9998 22.8653 26.9998 21.6811Z" fill="#FF6B00"/>
<path d="M25.5606 19.8212C25.0443 19.6248 24.467 19.8839 24.2707 20.4002C24.0743 20.9166 24.3334 21.4943 24.8497 21.6907C25.3661 21.8866 25.9433 21.6275 26.1397 21.1111C26.3361 20.5952 26.077 20.0175 25.5606 19.8212Z" fill="white"/>
<path d="M36.9997 21.6811C36.9997 20.4973 36.1043 19.5378 34.9997 19.5378C33.8951 19.5378 32.9998 20.4973 32.9998 21.6811C32.9998 22.8653 33.8951 23.8248 34.9997 23.8248C36.1043 23.8248 36.9997 22.8653 36.9997 21.6811Z" fill="#FF6B00"/>
<path d="M35.7299 20.4007C35.5335 19.8843 34.9562 19.6252 34.4399 19.8216C33.9235 20.018 33.6644 20.5957 33.8608 21.1116C34.0572 21.628 34.6344 21.8871 35.1508 21.6907C35.6672 21.4948 35.9263 20.9171 35.7299 20.4007Z" fill="white"/>
<path d="M41.3799 17.3099C39.9398 15.8098 34.0402 17.71 33.0198 18.1302C32.6087 18.2845 32.2137 18.479 31.8406 18.7106C31.5325 18.9056 31.1746 19.0064 30.8097 18.9999H29.1902C28.8258 19.0064 28.4678 18.9056 28.1597 18.7106C27.7867 18.479 27.3912 18.2845 26.9801 18.1302C25.9597 17.71 20.0601 15.8098 18.6199 17.3099C17.6802 18.2698 17.92 20.5298 18.6099 22.17C19.4732 24.4803 21.6838 26.0088 24.1497 26.0001C25.5866 26.0472 26.9476 25.3578 27.7601 24.1718C28.2719 23.4412 29.1064 23.0045 29.9986 22.9999H30.0013C30.8935 23.0045 31.728 23.4412 32.2398 24.1718C33.0523 25.3578 34.4132 26.0472 35.8502 26.0001C38.3161 26.0088 40.5267 24.4803 41.39 22.17C42.0799 20.5298 42.3197 18.2698 41.3799 17.3099ZM24.1497 24.0001C22.7366 24.034 21.426 23.2626 20.7701 22.0102C20.1727 21.0338 19.9127 19.8885 20.0299 18.75C21.21 18.4699 25.8599 19.6202 26.9901 20.3302C26.9201 21.2901 26.52 24.0001 24.1497 24.0001ZM39.2298 22.0102C38.5738 23.2626 37.2637 24.034 35.8502 24.0001C33.5 24.0001 33.0898 21.2901 33.0198 20.3302C34.14 19.6202 38.74 18.4699 39.9499 18.75C40.0799 19.8866 39.8263 21.0338 39.2298 22.0102Z" fill="#FF630B"/>
<path d="M3.99992 58.1099C3.99809 56.8295 4.15282 55.5533 4.45998 54.31L5.39015 50.5399C6.46864 46.6077 10.0831 43.9119 14.16 43.9998H15.0998L15.39 42.5999C15.7352 41.5663 16.7445 40.9044 17.8299 41.0001H17C7.00011 41.0001 5.99989 33.9999 5.99989 33.9999C13.9998 31.0002 11 16.0002 13 9.99985C15 3.99994 21.3675 5.26474 22.0001 3.99994C22.8534 2.2934 27.3509 1.31744 33.0002 1.0675C33.2794 1.05194 33.5618 1.03958 33.8475 1.02997C33.5628 1.01761 33.2757 1.00021 33.0002 1.00021C32.845 1.00021 32.6935 1.00342 32.5401 1.00433C32.509 1.00433 32.4756 1.00021 32.4444 1.00021C31.6077 1.00021 30.7915 1.02402 30 1.0675C24.3512 1.31744 19.8532 2.2934 18.9999 3.99994C18.3678 5.26474 11.9998 3.99994 9.99983 9.99985C7.99986 16.0002 11 31.0002 3.00017 33.9999C3.00017 33.9999 3.99992 41.0001 13.9998 41.0001H14.8302C13.7443 40.9044 12.735 41.5663 12.3898 42.5999L12.1001 43.9998H11.1598C7.08296 43.9119 3.46846 46.6077 2.38997 50.5399L1.45979 54.31C1.15263 55.5533 0.998368 56.8295 1.0002 58.1099V58.9998H3.99992V58.1099Z" fill="white"/>
<path d="M50.9999 60H9.00012C8.69937 60 8.41464 59.865 8.22467 59.6315C8.0347 59.3985 7.95963 59.0923 8.02051 58.7979L11.4084 42.3999C11.8451 40.8952 13.2701 39.8969 14.8339 39.9998H45.1731C46.7386 39.8964 48.165 40.8984 48.5985 42.4063L51.98 58.7979C52.0409 59.0923 51.9658 59.399 51.7758 59.632C51.5859 59.865 51.3007 60 50.9999 60ZM10.2274 58H49.7727L46.6388 42.8046C46.3742 42.2488 45.7837 41.9247 45.1731 41.9998H14.8339C14.2246 41.9257 13.6354 42.247 13.3681 42.8L10.2274 58Z" fill="#FF6B00"/>
<path d="M37.9998 41.9998H22.0001C21.4476 41.9998 20.9999 41.5521 20.9999 41.0001V35.9999C20.9999 35.4478 21.4476 35.0002 22.0001 35.0002H37.9998C38.5524 35.0002 39.0001 35.4478 39.0001 35.9999V41.0001C39.0001 41.5521 38.5524 41.9998 37.9998 41.9998ZM22.9998 39.9998H37.0001V37.0001H22.9998V39.9998Z" fill="#FF6B00"/>
<path d="M37.9998 37.0001H22.0001C17.5836 36.9951 14.0052 33.4163 13.9998 28.9998V26.9998C13.9998 26.4478 14.4479 26.0001 15 26.0001C15.552 26.0001 16.0002 26.4478 16.0002 26.9998V28.9998C16.0034 32.3122 18.6877 34.9965 22.0001 35.0002H37.9998C41.3122 34.9965 43.9966 32.3122 43.9998 28.9998V24.0001C43.9998 23.4476 44.4479 22.9999 45 22.9999C45.552 22.9999 46.0002 23.4476 46.0002 24.0001V28.9998C45.9947 33.4163 42.4164 36.9951 37.9998 37.0001Z" fill="#FF6B00"/>
<path d="M0.488892 54.0706L1.26755 50.9157C1.39435 50.3471 1.55777 49.7873 1.75735 49.2403C1.96976 48.6699 2.24258 48.1242 2.57126 47.6125C3.88412 45.5603 5.90836 44.0648 8.25577 43.4134C9.20059 43.1442 10.1775 43.0051 11.1598 43V45C10.3638 45.005 9.5723 45.1181 8.80646 45.336C6.93192 45.8524 5.31372 47.043 4.26315 48.679C4.00543 49.0787 3.79166 49.5053 3.62686 49.9516C3.45612 50.4227 3.3165 50.9042 3.20938 51.3936L2.43073 54.5499L0.488892 54.0706Z" fill="white"/>
<path d="M2.73788 49.4801C2.47604 49.3799 2.18353 49.3996 1.93726 49.5332C1.69052 49.6664 1.51474 49.9013 1.45569 50.175L0.488892 54.0706L2.43073 54.5494L3.39111 50.6808C3.49365 50.175 3.21808 49.6687 2.73788 49.4801Z" fill="#FF6B00"/>
<path d="M11.1598 45V43C10.1775 43.0051 9.20062 43.1442 8.25579 43.4134C7.90057 43.5123 7.5513 43.6317 7.20935 43.7709C6.94796 43.8657 6.74014 44.0685 6.63897 44.3271C6.53781 44.5862 6.55337 44.8759 6.68154 45.1227C6.92553 45.5832 7.46981 45.7961 7.96191 45.6239C8.23748 45.5118 8.51947 45.4152 8.80648 45.336C9.57232 45.1181 10.3638 45.005 11.1598 45Z" fill="#FF6B00"/>
<path d="M3.58661 46.2804C3.39069 46.4928 3.28952 46.7761 3.30692 47.0645L3.34903 47.2586C3.36917 47.3241 3.39847 47.3859 3.43692 47.4426C3.46439 47.4998 3.50147 47.5525 3.54587 47.5978C3.59256 47.6459 3.64246 47.6903 3.69556 47.7306C3.91162 47.8784 4.17026 47.9489 4.43119 47.9315C4.55158 47.915 4.66922 47.8807 4.77954 47.8299C5.10685 47.6697 5.31284 47.3355 5.30826 46.9716C5.30277 46.8411 5.27576 46.713 5.22907 46.5912C5.18604 46.4685 5.12149 46.3545 5.03772 46.2547C4.86194 46.0529 4.60926 45.9357 4.34192 45.9315C4.05307 45.9407 3.7807 46.0666 3.58661 46.2804Z" fill="#FF6B00"/>
<path d="M11.9998 60H1.00016C0.447636 60 -5.72309e-05 59.5523 -5.72309e-05 58.9998V58.1099C-0.000972758 56.748 0.163364 55.3912 0.489292 54.0688C0.627079 53.5387 1.16541 53.2182 1.69733 53.3496C2.22879 53.481 2.55564 54.0156 2.43067 54.5489C2.15189 55.6782 2.00769 56.8368 1.99991 58H11.9998C12.5523 58 13 58.4477 13 58.9998C13 59.5523 12.5523 60 11.9998 60Z" fill="#FF6B00"/>
<path d="M12.1 45H11.1598C10.6077 45 10.16 44.5523 10.16 43.9998C10.16 43.4477 10.6077 43 11.1598 43H12.1C12.6521 43 13.0998 43.4477 13.0998 43.9998C13.0998 44.5523 12.6521 45 12.1 45Z" fill="#FF6B00"/>
<path d="M58.9998 60H48.0002C47.4477 60 47 59.5523 47 58.9998C47 58.4477 47.4477 58 48.0002 58H58.0001C57.9923 56.8373 57.8476 55.6792 57.5693 54.5499L56.6391 50.7802C55.6829 47.2856 52.4616 44.8984 48.8402 45H47.91C47.3579 45 46.9098 44.5523 46.9098 43.9998C46.9098 43.4477 47.3579 43 47.91 43H48.8402C53.3826 42.8957 57.4073 45.9123 58.5814 50.3018L59.5111 54.0701C59.8371 55.3922 60.001 56.7485 60 58.1099V58.9998C60 59.5523 59.5523 60 58.9998 60Z" fill="#FF6B00"/>
<path d="M34 32H30C25.0566 32 24.9999 29.122 24.9999 28.9998C24.9999 28.4477 25.4476 28 26.0001 28C26.5522 28 26.9998 28.4477 26.9998 28.9998C27.047 29.3102 27.7373 30 30 30H34C34.5525 30 35.0002 30.4477 35.0002 31.0002C35.0002 31.5523 34.5525 32 34 32Z" fill="#FF6B00"/>
<path d="M45.173 41.9998C44.6205 41.9998 44.1728 41.5521 44.1728 41.0001C44.1728 40.4475 44.6205 39.9998 45.173 39.9998C53.4247 39.9998 55.41 36.0516 55.8719 34.5039C53.205 32.7498 52.8195 29.5312 52.2089 24.4441C51.9415 22.2116 51.6074 19.4321 51.0164 16.1783C49.2453 6.43753 40.4356 1.99997 33.0002 1.99997C24.2821 1.99997 20.3865 3.4639 19.8944 4.44717C19.4783 5.27847 18.4932 5.47348 17.2463 5.72067C15.0929 6.14731 12.1436 6.73233 10.9483 10.3166C10.3674 12.7872 10.08 15.3177 10.0919 17.8555C9.80577 24.1379 9.45191 31.8837 4.17985 34.5721C4.73649 36.1963 6.81016 39.9998 13.9998 39.9998C14.5523 39.9998 15 40.4475 15 41.0001C15 41.5521 14.5523 41.9998 13.9998 41.9998C3.257 41.9998 2.02149 34.2201 2.01005 34.1414C1.94322 33.6768 2.20918 33.2286 2.64863 33.0634C7.4785 31.2529 7.8058 24.0871 8.09419 17.7635C8.08091 15.0412 8.40272 12.3276 9.05183 9.68353C10.6137 4.99695 14.5226 4.2215 16.8576 3.7587C17.3026 3.68774 17.7411 3.57971 18.1682 3.43643C19.9356 0.33783 29.1037 0 33.0002 0C41.2395 0 51.0077 4.95117 52.9834 15.8212C53.5858 19.1336 53.9232 21.9461 54.1942 24.207C54.8543 29.7098 55.2118 31.9885 57.4475 33.1055C57.816 33.2899 58.0339 33.6823 57.9959 34.0929C57.9881 34.1721 57.117 41.9998 45.173 41.9998Z" fill="#FF6B00"/>
<path d="M15 28C14.5958 28 14.231 27.7565 14.0763 27.3825C13.9216 27.009 14.0072 26.5791 14.2933 26.293C15.7961 24.7902 16.7304 21.834 17.5557 19.2256C17.7237 18.6932 17.8876 18.1755 18.052 17.6834C18.9043 15.1259 21.0292 10.6027 25.6838 9.05183C29.2635 7.8534 40.6875 15.1387 41.8946 17.5525C42.8229 19.6729 44.1129 21.6151 45.7068 23.2929C46.0859 23.6852 46.0808 24.3086 45.6949 24.6945C45.309 25.0804 44.6856 25.0855 44.2933 24.7069C42.5451 22.8786 41.1278 20.7605 40.1056 18.4465C39.8067 17.85 37.3723 15.8304 33.75 13.7407C29.7716 11.4446 27.1056 10.6906 26.3164 10.9474C22.4872 12.2241 20.6836 16.1119 19.9485 18.3156C19.7883 18.7981 19.6271 19.3057 19.4619 19.8276C18.5683 22.6547 17.5557 25.8586 15.7068 27.7066C15.5201 27.8943 15.2655 28 15 28Z" fill="#FF6B00"/>
<path d="M30.006 47.9874L29.9794 47.9865C29.6109 47.9819 29.2749 47.775 29.1055 47.4472C29.0831 47.4101 28.2395 46.0002 24.9999 46.0002C22.1608 45.9531 19.7095 43.9993 19.0302 41.2422C18.8992 40.708 19.2247 40.1683 19.7585 40.0346C20.2922 39.9014 20.8338 40.2246 20.9693 40.7579C21.004 40.8856 21.8504 43.9998 24.9999 43.9998C26.7916 43.8844 28.5654 44.4145 30 45.4939C31.4346 44.4145 33.2085 43.8844 35.0002 43.9998C38.1496 43.9998 38.996 40.8856 39.0312 40.7529C39.1777 40.231 39.7133 39.9211 40.2388 40.0534C40.7643 40.1862 41.0884 40.7135 40.9699 41.2422C40.2901 43.9993 37.8392 45.9526 35.0002 46.0002C31.7606 46.0002 30.9169 47.4101 30.8817 47.4706C30.7022 47.786 30.369 47.9823 30.006 47.9874Z" fill="#FF6B00"/>
<path d="M20.9999 60H20.0001C16.6877 59.9963 14.0034 57.312 13.9998 54.0001C13.9998 53.4476 14.4479 52.9999 15 52.9999C15.552 52.9999 16.0002 53.4476 16.0002 54.0001C16.002 56.2083 17.7919 57.9977 20.0001 58H20.9999C21.5524 58 22.0001 58.4477 22.0001 58.9998C22.0001 59.5523 21.5524 60 20.9999 60Z" fill="#FF6B00"/>
<path d="M39.9998 60H39.0001C38.4476 60 37.9999 59.5523 37.9999 58.9998C37.9999 58.4477 38.4476 58 39.0001 58H39.9998C42.2081 57.9977 43.998 56.2083 43.9998 54.0001C43.9998 53.4476 44.4479 52.9999 45 52.9999C45.5521 52.9999 46.0002 53.4476 46.0002 54.0001C45.9966 57.312 43.3122 59.9963 39.9998 60Z" fill="#FF6B00"/>
<path d="M30 60C29.4479 60 28.9998 59.5523 28.9998 58.9998V50.9999C28.9998 50.4478 29.4479 50.0002 30 50.0002C30.552 50.0002 31.0002 50.4478 31.0002 50.9999V58.9998C31.0002 59.5523 30.552 60 30 60Z" fill="#FF6B00"/>
<path d="M31.0002 52.0001H28.9998C27.8961 51.9983 27.0016 51.1038 26.9998 50.0002V48.0002C27.0016 46.8961 27.8961 46.0016 28.9998 46.0002H31.0002C32.1039 46.0016 32.9984 46.8961 33.0002 48.0002V50.0002C32.9984 51.1038 32.1039 51.9983 31.0002 52.0001ZM28.9998 48.0002V50.0002H31.002L31.0002 48.0002H28.9998Z" fill="#FF6B00"/>
</g>
<defs>
<clipPath id="clip0">
<rect width="60" height="60" fill="white"/>
</clipPath>
</defs>
</svg>
