<svg id="Capa_1" enable-background="new 0 0 512.002 512.002" height="512" viewBox="0 0 512.002 512.002" width="512" xmlns="http://www.w3.org/2000/svg"><g><path d="m497.002 122.001-75 375c0 8.284 6.716 15 15 15h60c8.284 0 15-6.716 15-15v-360c0-8.284-6.716-15-15-15z" fill="#c7cfe1"/><path d="m512.002 47.001v90c0 8.28-6.72 15-15 15h-420c-8.28 0-15-6.72-15-15v-90c0-8.28 6.72-15 15-15h420c8.28 0 15 6.72 15 15z" fill="#ff641a"/><path d="m512.002 47.001v90c0 8.28-6.72 15-15 15h-210v-120h210c8.28 0 15 6.72 15 15z" fill="#f03800"/><path d="m512.002 137.001c0 129.46-32.82 280.17-60.67 364.44-1.95 6.29-7.81 10.56-14.33 10.56h-422c-10.36 0-17.5-10.25-14.18-19.89.61-1.77 61.18-179.83 61.18-355.11z" fill="#f0f7ff"/><path d="m512.002 137.001c0 129.46-32.82 280.17-60.67 364.44-1.95 6.29-7.81 10.56-14.33 10.56h-150v-375z" fill="#dfe7f4"/><g><path d="m302.002 182.001c-5.01 0-10.02.27-15 .81-68.25 7.26-132.64 62.91-149.55 130.55-19.15 76.61 29.26 138.64 104.55 138.64 15.19 0 30.35-2.51 45-7.12 56.32-17.73 105.15-66.64 119.55-124.24 19.15-76.61-29.26-138.64-104.55-138.64z" fill="#ff641a"/><path d="m406.552 320.641c-14.4 57.6-63.23 106.51-119.55 124.24v-262.07c4.98-.54 9.99-.81 15-.81 75.29 0 123.7 62.03 104.55 138.64z" fill="#f03800"/><path d="m377.452 313.361c-10.92 43.69-47.39 82.82-90.45 99.75-14.49 5.7-29.73 8.89-45 8.89-55.85 0-89.85-43.75-75.45-101.36 13.39-53.57 65.18-100.28 120.45-107.63 4.98-.67 9.99-1.01 15-1.01 55.85 0 89.85 43.75 75.45 101.36z" fill="#f0f7ff"/><path d="m377.452 313.361c-10.92 43.69-47.39 82.82-90.45 99.75v-200.1c4.98-.67 9.99-1.01 15-1.01 55.85 0 89.85 43.75 75.45 101.36z" fill="#dfe7f4"/></g><g><path d="m347.002 317.001c0 8.28-6.72 15-15 15h-60c-9.76 0-16.92-9.19-14.55-18.64l15-60c1.71-6.82 7.83-11.37 14.55-11.36 1.2 0 2.42.14 3.64.45 8.03 2.01 12.92 10.15 10.91 18.19l-10.34 41.36h40.79c8.28 0 15 6.72 15 15z" fill="#474f54"/></g><path d="m347.002 317.001c0 8.28-6.72 15-15 15h-45v-90c1.2 0 2.42.14 3.64.45 8.03 2.01 12.92 10.15 10.91 18.19l-10.34 41.36h40.79c8.28 0 15 6.72 15 15z" fill="#32393f"/><g><path d="m167.002 92.001c-8.284 0-15-6.716-15-15v-62c0-8.284 6.716-15 15-15s15 6.716 15 15v62c0 8.284-6.716 15-15 15z" fill="#474f54"/></g><g><path d="m302.002 15.001v62c0 8.28-6.72 15-15 15s-15-6.72-15-15v-62c0-8.28 6.72-15 15-15s15 6.72 15 15z" fill="#474f54"/></g><path d="m302.002 15.001v62c0 8.28-6.72 15-15 15v-92c8.28 0 15 6.72 15 15z" fill="#32393f"/><g><path d="m407.002 92.001c-8.284 0-15-6.716-15-15v-62c0-8.284 6.716-15 15-15s15 6.716 15 15v62c0 8.284-6.716 15-15 15z" fill="#32393f"/></g></g></svg>